<svg version="1" xmlns="http://www.w3.org/2000/svg" width="2106.667" height="2106.667" viewBox="0 0 1580.000000 1580.000000"><path d="M751.5.6c-2.7.2-12 .8-20.5 1.4-113.5 7.9-229.7 43.1-329.4 99.7C316 150.4 240.4 214 177.7 290.5 90.1 397.3 30.8 529.6 9.5 666c-7 44.7-9 72-9 124 0 44.2.7 57.7 4.6 91.4C21 1019.4 73 1150.3 156 1261.5c24.9 33.3 45.1 56.7 75.5 87 61.7 61.8 128.3 109.9 205 148.3 93.2 46.5 186.3 72.3 294.5 81.4 20.8 1.7 97.2 1.7 118 0 108.2-9.1 201.3-34.9 294.5-81.4 99.2-49.6 187.3-120.2 258.8-207.3 87.6-106.8 146.9-239.1 168.2-375.5 7-44.7 9-72 9-124 0-44.2-.7-57.7-4.6-91.4-15.9-138-67.9-268.9-150.9-380.1-24.9-33.3-45.1-56.7-75.5-87-61.7-61.8-128.3-109.9-205-148.3C1052.2 37.6 960.6 11.9 856 2.4 839.7.9 764.8-.4 751.5.6zm88 41.5C1019.8 53.4 1191 131 1320 260c96.7 96.7 164.7 216.9 197.4 348.5 15.1 60.9 21.9 116.9 21.9 181.5 0 34.1-1.1 53.5-4.4 83.5-18.6 168.8-94.1 325.7-214.9 446.5-96.7 96.7-216.9 164.7-348.5 197.4-60.9 15.1-116.9 21.9-181.5 21.9-34.1 0-53.5-1.1-83.5-4.4-168.8-18.6-325.7-94.1-446.5-214.9-96.7-96.7-164.7-216.9-197.4-348.5C47.5 910.6 40.7 854.6 40.7 790c0-34.1 1.1-53.5 4.4-83.5C63.7 537.7 139.2 380.8 260 260c96.7-96.7 216.9-164.7 348.5-197.4 75.2-18.7 152-25.5 231-20.5z"/><path d="M779.5 694.2c-98.3 202.6-178.8 368.4-178.9 368.4-.1.2-414.6-253-418.5-255.6-2.2-1.5 3.2-4.9 165.5-103.9 92.4-56.3 168.1-102.5 168.2-102.7.9-.6-44.4-69.2-45.3-68.7-.5.4-84.4 52.1-186.3 115.1L99 761.3l.2 44 .3 43.9 232 144.4c127.6 79.5 232.1 144.8 232.3 145.3.1.4-8.8 19.2-19.8 41.6-14.7 30-19.7 41.1-18.7 41.6 1.8 1 71.7 31.9 72.8 32.2.5.1 79.7-162.5 176.1-361.4C870.6 694.1 949.9 531.2 950.3 531c.7-.2 437.7 266.6 447.9 273.5 1.5 1-24 16.9-165.7 103.6-92.1 56.3-167.4 102.8-167.4 103.4 0 1.4 46.2 66.9 47.2 67 .4 0 83.6-51.5 184.7-114.5l184-114.5-.3-44.4-.2-44.5-245.8-152.1c-135.2-83.7-246.2-152.6-246.6-153.1-.5-.5 9.2-21.8 21.5-47.3 12.3-25.6 22.4-46.8 22.4-47.1 0-.7-71.8-35-73.1-35-.3 0-81.1 165.7-179.4 368.2z"/></svg>