<?xml version="1.0" standalone="no"?>
<!DOCTYPE svg PUBLIC "-//W3C//DTD SVG 20010904//EN"
 "http://www.w3.org/TR/2001/REC-SVG-20010904/DTD/svg10.dtd">
<svg version="1.0" xmlns="http://www.w3.org/2000/svg"
 width="500.000000pt" height="500.000000pt" viewBox="0 0 500.000000 500.000000"
 preserveAspectRatio="xMidYMid meet">
<metadata>
Created by potrace 1.14, written by Peter Selinger 2001-2017
</metadata>
<g transform="translate(0.000000,500.000000) scale(0.100000,-0.100000)"
fill="#000000" stroke="none">
<path d="M2700 3876 c0 -2 -32 -122 -71 -266 -39 -144 -72 -269 -74 -278 -2
-9 -16 -60 -30 -112 -36 -131 -85 -312 -89 -330 -10 -38 -100 -374 -121 -450
-13 -47 -51 -186 -84 -310 -33 -124 -99 -369 -146 -545 -48 -176 -88 -327 -90
-335 -8 -32 -45 -168 -50 -181 -4 -12 20 -14 144 -14 86 0 154 4 159 10 5 6
17 44 27 85 10 41 21 82 25 90 5 8 10 29 13 45 3 17 27 107 52 200 25 94 52
193 60 220 7 28 54 203 105 390 50 187 93 347 95 355 2 8 86 323 188 700 101
377 187 695 190 708 l5 22 -154 0 c-85 0 -154 -2 -154 -4z"/>
<path d="M1435 3146 c-71 -35 -186 -90 -255 -123 -69 -34 -231 -112 -360 -175
-129 -63 -298 -145 -375 -182 -77 -37 -201 -97 -275 -134 l-135 -67 0 -129 0
-128 70 -33 c38 -18 169 -81 290 -140 121 -59 283 -138 360 -175 77 -37 221
-107 320 -155 423 -205 485 -235 488 -235 1 0 2 79 2 175 l0 176 -150 68 c-83
37 -177 80 -210 95 -33 16 -177 81 -320 146 -143 65 -295 134 -338 154 -43 20
-83 36 -88 36 -5 0 -9 7 -9 15 0 9 19 24 43 34 23 10 71 32 107 48 36 17 211
97 390 178 179 81 368 167 420 191 52 25 108 50 125 58 l30 13 0 176 c0 98 0
177 0 177 0 -1 -58 -29 -130 -64z"/>
<path d="M3399 3207 c-4 -6 -3 -340 1 -346 3 -5 77 -41 165 -81 88 -39 183
-82 210 -95 28 -13 106 -49 175 -80 69 -32 172 -79 230 -105 58 -27 155 -71
215 -98 61 -28 111 -56 112 -63 2 -9 -24 -26 -65 -44 -37 -16 -107 -48 -157
-71 -49 -23 -157 -72 -240 -109 -82 -37 -179 -81 -215 -97 -36 -16 -148 -68
-250 -114 l-185 -84 0 -175 c0 -96 1 -175 2 -175 4 0 296 141 818 395 363 177
552 268 625 302 41 19 77 39 80 43 3 5 5 64 5 132 l0 123 -131 65 c-72 36
-189 93 -260 127 -71 34 -259 126 -419 203 -159 78 -317 154 -350 170 -33 15
-129 62 -212 103 -84 41 -154 74 -154 74z"/>
</g>
</svg>
